name C:/MyDriveSym/Projects/mobilecap/Data\Session20210823_0002\mocap\ForceDataProcessed\walkingTS2_forces.mot
datacolumns 19
datarows 17
range 0.00000000 0.00800000
endheader 
time	R_ground_force_vx	R_ground_force_vy	R_ground_force_vz	R_ground_force_px	R_ground_force_py	R_ground_force_pz	R_ground_torque_x	R_ground_torque_y	R_ground_torque_z	L_ground_force_vx	L_ground_force_vy	L_ground_force_vz	L_ground_force_px	L_ground_force_py	L_ground_force_pz	L_ground_torque_x	L_ground_torque_y	L_ground_torque_z	
          0.00000000	       -112.77777100	        639.89877400	        -51.07629600	          0.16758100	          0.00600000	         -0.15689600	          0.00000000	          0.23891500	          0.00000000	          0.00000000	          0.00000000	          0.00000000	          0.63659800	          0.00000000	         -0.32331900	          0.00000000	          0.00000000	          0.00000000	
          0.00050000	       -112.77815900	        640.22555700	        -51.17236700	          0.16758100	          0.00600000	         -0.15689600	          0.00000000	          0.24090900	          0.00000000	          0.00000000	          0.00000000	          0.00000000	          0.63659800	          0.00000000	         -0.32331900	          0.00000000	          0.00000000	          0.00000000	
          0.00100000	       -112.77789400	        640.55329500	        -51.26881400	          0.16758100	          0.00600000	         -0.15689600	          0.00000000	          0.24290700	          0.00000000	          0.00000000	          0.00000000	          0.00000000	          0.63659800	          0.00000000	         -0.32331900	          0.00000000	          0.00000000	          0.00000000	
          0.00150000	       -112.77696600	        640.88195300	        -51.36563000	          0.16758100	          0.00600000	         -0.15689600	          0.00000000	          0.24491100	          0.00000000	          0.00000000	          0.00000000	          0.00000000	          0.63659800	          0.00000000	         -0.32331900	          0.00000000	          0.00000000	          0.00000000	
          0.00200000	       -112.77536300	        641.21149500	        -51.46280500	          0.16771700	          0.00600000	         -0.15686900	          0.00000000	          0.24692000	          0.00000000	          0.00000000	          0.00000000	          0.00000000	          0.63659800	          0.00000000	         -0.32331900	          0.00000000	          0.00000000	          0.00000000	
          0.00250000	       -112.77307100	        641.54188600	        -51.56033000	          0.16785500	          0.00600000	         -0.15684100	          0.00000000	          0.24893300	          0.00000000	          0.00000000	          0.00000000	          0.00000000	          0.63659800	          0.00000000	         -0.32331900	          0.00000000	          0.00000000	          0.00000000	
          0.00300000	       -112.77008000	        641.87308700	        -51.65819500	          0.16799400	          0.00600000	         -0.15681200	          0.00000000	          0.25095100	          0.00000000	          0.00000000	          0.00000000	          0.00000000	          0.63659800	          0.00000000	         -0.32331900	          0.00000000	          0.00000000	          0.00000000	
          0.00350000	       -112.76637600	        642.20506200	        -51.75639200	          0.16813300	          0.00600000	         -0.15678400	          0.00000000	          0.25297300	          0.00000000	          0.00000000	          0.00000000	          0.00000000	          0.63659800	          0.00000000	         -0.32331900	          0.00000000	          0.00000000	          0.00000000	
          0.00400000	       -112.76194800	        642.53777200	        -51.85491100	          0.16827400	          0.00600000	         -0.15675500	          0.00000000	          0.25500000	          0.00000000	          0.00000000	          0.00000000	          0.00000000	          0.63659800	          0.00000000	         -0.32331900	          0.00000000	          0.00000000	          0.00000000	
          0.00450000	       -112.75678300	        642.87117800	        -51.95374100	          0.16841500	          0.00600000	         -0.15672700	          0.00000000	          0.25703000	          0.00000000	          0.00000000	          0.00000000	          0.00000000	          0.63659800	          0.00000000	         -0.32331900	          0.00000000	          0.00000000	          0.00000000	
          0.00500000	       -112.75086800	        643.20524100	        -52.05287300	          0.16855700	          0.00600000	         -0.15669700	          0.00000000	          0.25906400	          0.00000000	          0.00000000	          0.00000000	          0.00000000	          0.63659800	          0.00000000	         -0.32331900	          0.00000000	          0.00000000	          0.00000000	
          0.00550000	       -112.74419100	        643.53991900	        -52.15229700	          0.16870000	          0.00600000	         -0.15666800	          0.00000000	          0.26110200	          0.00000000	          0.00000000	          0.00000000	          0.00000000	          0.63659800	          0.00000000	         -0.32331900	          0.00000000	          0.00000000	          0.00000000	
          0.00600000	       -112.73673800	        643.87517200	        -52.25200100	          0.16884300	          0.00600000	         -0.15663900	          0.00000000	          0.26314300	          0.00000000	          0.00000000	          0.00000000	          0.00000000	          0.63659800	          0.00000000	         -0.32331900	          0.00000000	          0.00000000	          0.00000000	
          0.00650000	       -112.72849600	        644.21095800	        -52.35197400	          0.16898800	          0.00600000	         -0.15660900	          0.00000000	          0.26518700	          0.00000000	          0.00000000	          0.00000000	          0.00000000	          0.63659800	          0.00000000	         -0.32331900	          0.00000000	          0.00000000	          0.00000000	
          0.00700000	       -112.71945200	        644.54723500	        -52.45220700	          0.16913300	          0.00600000	         -0.15657900	          0.00000000	          0.26723400	          0.00000000	          0.00000000	          0.00000000	          0.00000000	          0.63659800	          0.00000000	         -0.32331900	          0.00000000	          0.00000000	          0.00000000	
          0.00750000	       -112.70959300	        644.88395900	        -52.55268700	          0.16927900	          0.00600000	         -0.15654900	          0.00000000	          0.26928500	          0.00000000	          0.00000000	          0.00000000	          0.00000000	          0.63659800	          0.00000000	         -0.32331900	          0.00000000	          0.00000000	          0.00000000	
          0.00800000	       -112.69890500	        645.22108700	        -52.65340300	          0.16942600	          0.00600000	         -0.15651900	          0.00000000	          0.27133800	          0.00000000	          0.00000000	          0.00000000	          0.00000000	          0.63659800	          0.00000000	         -0.32331900	          0.00000000	          0.00000000	          0.00000000	
